<svg width="55" height="44" viewBox="0 0 55 44" fill="none" xmlns="http://www.w3.org/2000/svg">
<g filter="url(#filter0_d_3_8)">
<path d="M5 33L22.4292 26.8146C26.7801 25.2706 26.4214 19.0022 21.9228 17.9645V17.9645C17.3106 16.9006 17.0956 10.4122 21.6272 9.04523L37.3437 4.30432" stroke="black" stroke-width="5"/>
<path d="M5 33L22.4292 26.8146C26.7801 25.2706 26.4214 19.0022 21.9228 17.9645V17.9645C17.3106 16.9006 17.0956 10.4122 21.6272 9.04523L37.3437 4.30432" stroke="black" stroke-width="5"/>
<path d="M17.6562 31.6957L35.0855 25.5103C39.4363 23.9663 39.0777 17.6979 34.5791 16.6602V16.6602C29.9669 15.5963 29.7518 9.10788 34.2835 7.74091L50 3" stroke="black" stroke-width="5"/>
<path d="M17.6562 31.6957L35.0855 25.5103C39.4363 23.9663 39.0777 17.6979 34.5791 16.6602V16.6602C29.9669 15.5963 29.7518 9.10788 34.2835 7.74091L50 3" stroke="black" stroke-width="5"/>
</g>
<defs>
<filter id="filter0_d_3_8" x="0.163879" y="0.606506" width="54.5581" height="42.7495" filterUnits="userSpaceOnUse" color-interpolation-filters="sRGB">
<feFlood flood-opacity="0" result="BackgroundImageFix"/>
<feColorMatrix in="SourceAlpha" type="matrix" values="0 0 0 0 0 0 0 0 0 0 0 0 0 0 0 0 0 0 127 0" result="hardAlpha"/>
<feOffset dy="4"/>
<feGaussianBlur stdDeviation="2"/>
<feComposite in2="hardAlpha" operator="out"/>
<feColorMatrix type="matrix" values="0 0 0 0 0 0 0 0 0 0 0 0 0 0 0 0 0 0 0.25 0"/>
<feBlend mode="normal" in2="BackgroundImageFix" result="effect1_dropShadow_3_8"/>
<feBlend mode="normal" in="SourceGraphic" in2="effect1_dropShadow_3_8" result="shape"/>
</filter>
</defs>
</svg>
